<svg width="183" height="103" viewBox="0 0 183 103" fill="none" xmlns="http://www.w3.org/2000/svg">
<path d="M189.302 113.178C189.302 113.178 189.267 113.196 189.25 113.213C187.449 114.087 153.996 129.651 146.756 84.3764C143.975 66.9241 141.107 50.9931 136.91 37.7727C155.237 34.5725 191.034 33.156 203.974 66.2595C215.341 95.3235 189.302 113.161 189.302 113.161V113.178Z" fill="url(#paint0_radial_74_19107)"/>
<path d="M167.181 119.963H29.8877C24.7639 119.963 6.5771 120.417 1.13854 102.318C-4.28253 84.2187 10.5817 71.6103 26.1279 74.2509C36.9351 76.0696 53.3732 85.4253 58.2347 88.4157C58.6893 88.713 59.1615 89.0102 59.6337 89.29C99.837 113.737 153.803 119.176 164.855 119.893C165.642 119.945 166.411 119.98 167.181 119.98V119.963Z" fill="url(#paint1_linear_74_19107)"/>
<path d="M189.145 113.265C189.145 113.265 189.215 113.23 189.232 113.23C188.795 113.58 188.288 113.947 187.728 114.315C187.588 114.402 187.413 114.525 187.256 114.612C186.959 114.804 186.626 114.979 186.294 115.189H186.277C185.944 115.381 185.577 115.574 185.21 115.766C183.269 116.745 180.926 117.69 178.285 118.442C177.393 118.704 176.449 118.931 175.487 119.124C175.365 119.159 175.26 119.176 175.155 119.194C174.473 119.334 173.756 119.456 173.039 119.561C172.881 119.596 172.724 119.613 172.549 119.631C170.835 119.858 169.052 119.981 167.198 119.963C166.429 119.963 165.642 119.946 164.872 119.893C164.82 119.893 164.75 119.893 164.697 119.893C153.243 119.124 99.6444 113.615 59.6509 89.3078C59.1787 89.0105 58.7241 88.7307 58.2694 88.4334C19.9197 63.3041 40.7471 0 86.0743 0C115.715 0 129.146 15.0391 136.875 37.8076C141.229 50.5909 143.782 65.8398 146.388 82.2254C146.388 82.2604 146.388 82.2954 146.406 82.3304C146.51 83.0124 146.633 83.7119 146.738 84.3939C147.262 87.699 147.927 90.6718 148.714 93.3474C148.801 93.6796 148.906 94.0119 149.011 94.3442C149.326 95.3234 149.641 96.2678 149.973 97.1596C151.652 101.654 153.698 105.169 155.971 107.879C156.286 108.247 156.583 108.596 156.898 108.929C157.213 109.261 157.527 109.593 157.842 109.89C166.953 118.739 178.74 116.798 184.983 114.839C185.402 114.717 185.77 114.577 186.137 114.455C186.189 114.455 186.242 114.42 186.294 114.402C186.521 114.332 186.731 114.262 186.924 114.175C187.046 114.14 187.169 114.087 187.291 114.035C187.413 114 187.518 113.947 187.623 113.912C187.658 113.912 187.693 113.895 187.711 113.878C188.025 113.755 188.288 113.633 188.498 113.545C188.568 113.51 188.637 113.475 188.707 113.458C188.9 113.37 189.04 113.3 189.145 113.248V113.265Z" fill="url(#paint2_linear_74_19107)"/>
<path style="mix-blend-mode:screen" d="M189.302 113.196C188.865 113.563 188.323 113.93 187.728 114.315C187.588 114.402 187.414 114.525 187.256 114.612C186.941 114.804 186.627 114.997 186.294 115.189H186.277C185.945 115.382 185.577 115.574 185.21 115.766C183.269 116.746 180.926 117.69 178.285 118.442C177.393 118.704 176.449 118.931 175.487 119.124C175.365 119.159 175.26 119.176 175.155 119.194C174.473 119.334 173.756 119.456 173.039 119.561C172.882 119.596 172.724 119.613 172.549 119.631C171.78 119.736 170.993 119.806 170.206 119.858C169.996 119.858 169.786 119.876 169.594 119.893C168.877 119.928 168.16 119.963 167.426 119.963C167.356 119.963 167.286 119.963 167.216 119.963C167.181 119.963 167.163 119.963 167.128 119.963C166.394 119.963 165.642 119.946 164.89 119.893C164.837 119.893 164.768 119.893 164.715 119.893C164.645 119.893 164.593 119.893 164.523 119.893L164.89 119.998H29.8878C28.0691 119.998 24.6416 120.068 20.6894 119.316C20.4096 119.281 20.1473 119.229 19.885 119.159C24.729 117.742 38.9287 111.902 59.6162 89.3079C85.515 61.0484 118.531 41.0429 136.858 37.8252C141.212 50.6084 143.765 65.8574 146.371 82.243C146.371 82.278 146.371 82.313 146.388 82.3479C146.476 83.0299 146.598 83.7294 146.703 84.4114C147.228 87.7166 147.892 90.6894 148.679 93.365C148.767 93.6972 148.872 94.0295 148.976 94.3617C149.291 95.341 149.606 96.2853 149.938 97.1772C151.617 101.671 153.663 105.186 155.936 107.897C156.251 108.264 156.548 108.614 156.863 108.946C157.178 109.278 157.493 109.611 157.808 109.908C166.918 118.757 178.705 116.815 184.948 114.857C185.368 114.734 185.735 114.595 186.102 114.472C186.155 114.472 186.207 114.437 186.259 114.42C186.487 114.35 186.697 114.28 186.889 114.192C187.011 114.157 187.134 114.105 187.256 114.052C187.379 114.018 187.484 113.965 187.588 113.93C187.623 113.93 187.658 113.913 187.676 113.895C187.991 113.773 188.253 113.668 188.463 113.563C188.533 113.528 188.603 113.493 188.673 113.475C188.848 113.388 189.005 113.335 189.11 113.266C189.145 113.266 189.18 113.231 189.197 113.231C189.197 113.231 189.232 113.213 189.25 113.196H189.302Z" fill="url(#paint3_linear_74_19107)"/>
<defs>
<radialGradient id="paint0_radial_74_19107" cx="0" cy="0" r="1" gradientUnits="userSpaceOnUse" gradientTransform="translate(135.494 40.5706) scale(88.416 88.4159)">
<stop stop-color="white"/>
<stop offset="0.14" stop-color="#FEFAED"/>
<stop offset="0.41" stop-color="#FCF0BE"/>
<stop offset="0.79" stop-color="#F8DF74"/>
<stop offset="1" stop-color="#F7D548"/>
</radialGradient>
<linearGradient id="paint1_linear_74_19107" x1="90.0616" y1="125.961" x2="67.9576" y2="71.0682" gradientUnits="userSpaceOnUse">
<stop stop-color="#E9A93D"/>
<stop offset="1" stop-color="#FAE04B"/>
</linearGradient>
<linearGradient id="paint2_linear_74_19107" x1="141.054" y1="19.3585" x2="98.0531" y2="108.596" gradientUnits="userSpaceOnUse">
<stop stop-color="#E9A93D"/>
<stop offset="1" stop-color="#FAE04B"/>
</linearGradient>
<linearGradient id="paint3_linear_74_19107" x1="43.4404" y1="60.8385" x2="116.03" y2="97.457" gradientUnits="userSpaceOnUse">
<stop stop-color="white"/>
<stop offset="1" stop-color="#F7D548" stop-opacity="0"/>
</linearGradient>
</defs>
</svg>
