<svg version="1.2" xmlns="http://www.w3.org/2000/svg" viewBox="0 0 195 32" width="195" height="32">
	<title>logo-full-svg</title>
	<defs>
		<radialGradient id="g1" cx="0" cy="0" r="1" gradientUnits="userSpaceOnUse" gradientTransform="matrix(23.581,0,0,23.581,36.138,10.818)">
			<stop offset="0" stop-color="#ffffff"/>
			<stop offset=".14" stop-color="#fefaed"/>
			<stop offset=".41" stop-color="#fcf0be"/>
			<stop offset=".79" stop-color="#f8df74"/>
			<stop offset="1" stop-color="#f7d548"/>
		</radialGradient>
		<linearGradient id="g2" x2="1" gradientUnits="userSpaceOnUse" gradientTransform="matrix(-5.895,-14.64,21.888,-8.814,24.02,33.593)">
			<stop offset="0" stop-color="#e9a93d"/>
			<stop offset="1" stop-color="#fae04b"/>
		</linearGradient>
		<linearGradient id="g3" x2="1" gradientUnits="userSpaceOnUse" gradientTransform="matrix(-11.469,23.801,-40.437,-19.486,37.621,5.161)">
			<stop offset="0" stop-color="#e9a93d"/>
			<stop offset="1" stop-color="#fae04b"/>
		</linearGradient>
		<linearGradient id="g4" x2="1" gradientUnits="userSpaceOnUse" gradientTransform="matrix(19.36,9.767,-8.237,16.328,11.586,16.224)">
			<stop offset="0" stop-color="#ffffff" stop-opacity="1"/>
			<stop offset="1" stop-color="#f7d548" stop-opacity="0"/>
		</linearGradient>
	</defs>
	<style>
		tspan { white-space:pre } 
		.t0 { font-size: 30px;fill: #161616;font-weight: 400;font-family: "HelmetNeue-Regular", "Helmet Neue" } 
		.s1 { fill: #161616 } 
		.s2 { fill: url(#g1) } 
		.s3 { fill: url(#g2) } 
		.s4 { fill: url(#g3) } 
		.s5 { mix-blend-mode: screen;fill: url(#g4) } 
	</style>
	<text id="Eth" style="transform: matrix(1,0,0,1,58.8,28)" >
		<tspan x="0" y="0" class="t0">E</tspan><tspan  y="0" class="t0">t</tspan><tspan  y="0" class="t0">h
</tspan>
	</text>
	<path id="Layer" class="s1" d="m104.5 15.9q1-1.9 2.8-2.9 1.7-1 4-1 2.9 0 4.7 1.4 1.9 1.4 2.6 3.9h-3.5q-0.5-1.2-1.4-1.9-1-0.6-2.4-0.6-2 0-3.2 1.4-1.2 1.4-1.2 4 0 2.6 1.2 4 1.2 1.4 3.2 1.4 2.8 0 3.8-2.5h3.5q-0.7 2.4-2.6 3.9-1.9 1.4-4.7 1.4-2.3 0-4-1-1.8-1-2.8-2.9-1-1.9-1-4.3 0-2.5 1-4.3z"/>
	<path id="Layer" class="s1" d="m124.6 6.8v21.6h-3.3v-21.6z"/>
	<path id="Layer" fill-rule="evenodd" class="s1" d="m131.1 27.4q-1.8-1-2.8-2.9-1-1.9-1-4.3 0-2.4 1-4.3 1.1-1.9 2.9-2.9 1.9-1 4.2-1 2.2 0 4.1 1 1.8 1 2.9 2.9 1 1.9 1 4.3 0 2.4-1.1 4.3-1.1 1.9-2.9 2.9-1.9 1-4.2 1-2.3 0-4.1-1zm6.5-2.5q1.1-0.6 1.8-1.8 0.7-1.2 0.7-2.9 0-1.7-0.7-2.9-0.7-1.2-1.7-1.8-1.1-0.6-2.4-0.6-1.3 0-2.4 0.6-1 0.6-1.7 1.8-0.6 1.2-0.6 2.9 0 2.6 1.3 4 1.3 1.3 3.3 1.3 1.3 0 2.4-0.6z"/>
	<path id="Layer" class="s1" d="m160.6 12.3v15.9h-3.2v-1.9q-0.8 1-2.1 1.5-1.2 0.6-2.6 0.6-1.9 0-3.4-0.8-1.5-0.8-2.3-2.3-0.9-1.5-0.9-3.7v-9.3h3.3v8.8q0 2.2 1 3.3 1.1 1.1 3 1.1 1.8 0 2.9-1.1 1.1-1.1 1.1-3.3v-8.8h3.2z"/>
	<path id="Layer" fill-rule="evenodd" class="s1" d="m164.3 15.9q1-1.8 2.7-2.9 1.7-1 3.8-1 1.6 0 3.1 0.7 1.5 0.7 2.4 1.8v-7.7h3.3v21.3h-3.3v-2.3q-0.8 1.1-2.2 1.9-1.4 0.7-3.3 0.7-2.1 0-3.8-1-1.7-1.1-2.7-3-1-1.9-1-4.3 0-2.3 1-4.2zm11.3 1.4q-0.6-1.2-1.7-1.8-1.1-0.6-2.4-0.6-1.3 0-2.4 0.6-1 0.6-1.7 1.8-0.7 1.2-0.7 2.8 0 1.7 0.7 2.9 0.7 1.3 1.8 1.9 1.1 0.7 2.3 0.7 1.3 0 2.4-0.7 1.1-0.6 1.7-1.8 0.7-1.3 0.7-2.9 0-1.6-0.7-2.9z"/>
	<path id="Layer" class="s1" d="m185.6 27.7q-1.5-0.7-2.4-1.8-0.8-1.2-0.9-2.6h3.4q0.1 1 1 1.7 0.8 0.6 2.2 0.6c0.9 0 1.6-0.1 2.1-0.5q0.8-0.5 0.8-1.4 0-0.9-0.9-1.3-0.8-0.4-2.7-0.9-1.7-0.5-2.9-1-1.1-0.5-1.9-1.4-0.8-1-0.8-2.5 0-1.3 0.7-2.3 0.8-1.1 2.2-1.7 1.4-0.6 3.2-0.6 2.7 0 4.3 1.4 1.7 1.4 1.8 3.7h-3.3q-0.1-1.1-0.8-1.7-0.8-0.6-2.1-0.6-1.4 0-2 0.5-0.7 0.5-0.7 1.3 0 0.6 0.4 1 0.5 0.5 1.2 0.7 0.6 0.3 1.9 0.6 1.7 0.5 2.9 1 1.1 0.4 1.9 1.4 0.8 0.9 0.8 2.4 0 1.4-0.7 2.4-0.8 1.1-2.2 1.7-1.3 0.6-3.2 0.6-1.8 0-3.3-0.7z"/>
	<path id="Layer" class="s2" d="m50.5 30.2q0 0 0 0c-0.5 0.2-9.4 4.4-11.4-7.7-0.7-4.7-1.5-8.9-2.6-12.4 4.9-0.9 14.5-1.3 17.9 7.6 3 7.7-3.9 12.5-3.9 12.5z"/>
	<path id="Layer" class="s3" d="m44.6 32h-36.6c-1.4 0-6.2 0.1-7.7-4.7-1.4-4.8 2.5-8.2 6.7-7.5 2.9 0.5 7.2 3 8.5 3.8q0.2 0.1 0.4 0.2c10.7 6.5 25.1 8 28.1 8.2q0.3 0 0.6 0z"/>
	<path id="Layer" class="s4" d="m50.4 30.2q0.1 0 0.1 0-0.2 0.1-0.4 0.3-0.1 0-0.2 0.1-0.1 0-0.2 0.1-0.2 0.1-0.3 0.2-0.8 0.4-1.8 0.7-0.4 0.1-0.8 0.2 0 0-0.1 0-0.3 0-0.5 0.1-0.1 0-0.2 0-0.7 0.1-1.4 0.1-0.3 0-0.6 0-0.1 0-0.1 0c-3-0.2-17.3-1.7-28-8.2q-0.2-0.1-0.4-0.2c-10.2-6.7-4.6-23.6 7.5-23.6 7.9 0 11.4 4 13.5 10.1 1.2 3.4 1.8 7.5 2.5 11.8q0 0 0 0.1 0.1 0.2 0.1 0.5 0.2 1.3 0.6 2.4 0 0.1 0 0.3 0.2 0.4 0.3 0.7 0.7 1.8 1.6 2.9 0.1 0.1 0.2 0.2 0.2 0.2 0.3 0.3c2.4 2.4 5.6 1.8 7.2 1.3q0.2 0 0.3-0.1 0.1 0 0.1 0 0.1 0 0.2-0.1 0 0 0.1 0 0 0 0 0 0.1 0 0.1 0 0.1-0.1 0.2-0.1 0 0 0 0 0.1-0.1 0.1-0.1z"/>
	<path id="Layer" class="s5" d="m50.5 30.2q-0.2 0.1-0.4 0.3-0.1 0-0.2 0.1-0.1 0-0.2 0.1-0.2 0.1-0.3 0.2-0.8 0.4-1.8 0.7-0.4 0.1-0.8 0.2 0 0-0.1 0-0.3 0-0.5 0.1-0.1 0-0.2 0-0.3 0-0.6 0.1-0.1 0-0.2 0-0.3 0-0.5 0-0.1 0-0.1 0 0 0 0 0-0.3 0-0.6 0 0 0-0.1 0 0 0 0 0h0.1-36c-0.5 0-1.4 0-2.5-0.2q-0.1 0-0.2 0c1.3-0.4 5.1-2 10.6-8 6.9-7.5 15.7-12.9 20.6-13.7 1.2 3.4 1.8 7.5 2.5 11.8q0 0 0 0.1 0.1 0.2 0.1 0.5 0.2 1.3 0.6 2.4 0 0.1 0 0.3 0.2 0.4 0.3 0.7 0.7 1.8 1.6 2.9 0.1 0.1 0.2 0.3 0.2 0.1 0.3 0.2c2.4 2.4 5.6 1.9 7.2 1.3q0.2 0 0.3-0.1 0.1 0 0.1 0 0.1 0 0.1 0 0.1-0.1 0.1-0.1 0.1 0 0.1 0 0 0 0.1 0 0.1-0.1 0.2-0.1 0 0 0 0 0.1-0.1 0.1-0.1 0.1 0 0.1 0 0 0 0 0z"/>
</svg>