<svg width="195" height="32" viewBox="0 0 195 32" fill="none" xmlns="http://www.w3.org/2000/svg">
<path d="M81.1021 19.8244C81.8505 20.7652 82.2247 21.8284 82.2247 23.021C82.2247 24.0387 81.9624 24.955 81.4343 25.7699C80.9062 26.5848 80.1438 27.2283 79.1471 27.6969C78.1503 28.1691 76.9892 28.4034 75.6637 28.4034H67.6617V8.39502H75.2895C76.6534 8.39502 77.8216 8.62585 78.8008 9.0875C79.7801 9.54915 80.518 10.1682 81.0181 10.9446C81.5183 11.721 81.7666 12.5918 81.7666 13.5501C81.7666 14.7008 81.4588 15.6625 80.8468 16.4284C80.2312 17.1979 79.4059 17.7609 78.3706 18.1282C79.4443 18.3205 80.3571 18.8871 81.1056 19.8279L81.1021 19.8244ZM70.9423 16.8027H75.0027C76.0764 16.8027 76.9157 16.5578 77.5208 16.0682C78.1258 15.5786 78.4266 14.8721 78.4266 13.9523C78.4266 13.0325 78.1258 12.3435 77.5208 11.8364C76.9157 11.3293 76.0764 11.074 75.0027 11.074H70.9423V16.8027ZM77.9929 24.92C78.626 24.3814 78.9442 23.633 78.9442 22.6747C78.9442 21.7164 78.6085 20.9191 77.937 20.342C77.2655 19.7649 76.3737 19.4781 75.2615 19.4781H70.9423V25.7244H75.3769C76.4891 25.7244 77.3634 25.4551 77.9964 24.92H77.9929Z" fill="white"/>
<path d="M85.5227 10.4411C85.1205 10.0389 84.9177 9.53875 84.9177 8.9442C84.9177 8.34965 85.1205 7.84952 85.5227 7.44733C85.9249 7.04513 86.4251 6.84229 87.0196 6.84229C87.6142 6.84229 88.0863 7.04513 88.4885 7.44733C88.8907 7.84952 89.0935 8.34965 89.0935 8.9442C89.0935 9.53875 88.8907 10.0389 88.4885 10.4411C88.0863 10.8433 87.5967 11.0461 87.0196 11.0461C86.4425 11.0461 85.9249 10.8433 85.5227 10.4411ZM88.6319 12.5395V28.4H85.3514V12.5395H88.6319Z" fill="white"/>
<path d="M96.9626 15.2186V23.997C96.9626 24.5916 97.1025 25.0182 97.3788 25.277C97.6551 25.5358 98.1307 25.6652 98.8022 25.6652H100.817V28.4002H98.2252C96.7458 28.4002 95.6161 28.0539 94.8292 27.365C94.0423 26.6725 93.6506 25.5498 93.6506 23.997V15.2186H91.7795V12.5432H93.6506V8.59814H96.9626V12.5432H100.82V15.2186H96.9626Z" fill="white"/>
<path d="M104.506 15.8935C105.167 14.6555 106.084 13.7007 107.255 13.0292C108.427 12.3577 109.77 12.022 111.284 12.022C113.204 12.022 114.792 12.4766 116.048 13.3894C117.303 14.3022 118.153 15.5998 118.594 17.289H115.054C114.768 16.5021 114.306 15.89 113.673 15.4459C113.04 15.0052 112.243 14.7849 111.284 14.7849C109.941 14.7849 108.871 15.2605 108.074 16.2083C107.276 17.1596 106.878 18.4886 106.878 20.1953C106.878 21.902 107.276 23.238 108.074 24.1963C108.871 25.1545 109.941 25.6372 111.284 25.6372C113.183 25.6372 114.442 24.8013 115.054 23.1331H118.594C118.132 24.7454 117.268 26.0254 116.002 26.9767C114.736 27.9279 113.162 28.4001 111.281 28.4001C109.763 28.4001 108.42 28.0608 107.252 27.3789C106.08 26.6969 105.164 25.7386 104.503 24.5005C103.842 23.2625 103.51 21.8286 103.51 20.1988C103.51 18.569 103.842 17.1316 104.503 15.8935H104.506Z" fill="white"/>
<path d="M124.567 6.84229V28.4035H121.287V6.84229H124.567Z" fill="white"/>
<path d="M131.146 27.3788C129.936 26.6968 128.988 25.7385 128.295 24.5005C127.603 23.2624 127.26 21.8285 127.26 20.1987C127.26 18.5689 127.613 17.156 128.327 15.911C129.037 14.6624 130.006 13.7041 131.233 13.0326C132.461 12.3611 133.832 12.0254 135.35 12.0254C136.867 12.0254 138.238 12.3611 139.466 13.0326C140.694 13.7041 141.662 14.6624 142.372 15.911C143.082 17.1595 143.439 18.5864 143.439 20.1987C143.439 21.811 143.075 23.2414 142.344 24.4865C141.613 25.735 140.62 26.6968 139.365 27.3788C138.109 28.0608 136.721 28.4 135.206 28.4C133.692 28.4 132.356 28.0608 131.146 27.3788ZM137.577 24.9481C138.315 24.5459 138.917 23.9409 139.375 23.133C139.837 22.3286 140.068 21.3493 140.068 20.1952C140.068 19.0411 139.847 18.0688 139.407 17.2749C138.966 16.4775 138.378 15.8795 137.651 15.4773C136.92 15.0751 136.133 14.8722 135.29 14.8722C134.447 14.8722 133.664 15.0751 132.943 15.4773C132.223 15.8795 131.653 16.481 131.23 17.2749C130.807 18.0723 130.597 19.0446 130.597 20.1952C130.597 21.9019 131.034 23.2239 131.908 24.1542C132.783 25.0845 133.881 25.5497 135.203 25.5497C136.046 25.5497 136.839 25.3468 137.577 24.9446V24.9481Z" fill="white"/>
<path d="M160.635 12.3121V28.1726H157.355V26.3015C156.837 26.9555 156.159 27.4661 155.326 27.8404C154.494 28.2146 153.602 28.3999 152.665 28.3999C151.416 28.3999 150.301 28.1411 149.311 27.6235C148.321 27.1059 147.545 26.3365 146.978 25.3223C146.412 24.3045 146.128 23.077 146.128 21.636V12.3086H149.381V21.1464C149.381 22.5663 149.734 23.654 150.448 24.4129C151.158 25.1719 152.126 25.5496 153.354 25.5496C154.582 25.5496 155.557 25.1719 156.274 24.4129C156.995 23.654 157.355 22.5663 157.355 21.1464V12.3086H160.635V12.3121Z" fill="white"/>
<path d="M164.318 15.9074C164.979 14.6799 165.882 13.7251 167.025 13.0431C168.165 12.3611 169.438 12.0219 170.841 12.0219C171.876 12.0219 172.901 12.2492 173.908 12.6969C174.915 13.148 175.716 13.7461 176.311 14.4945V6.84229H179.623V28.1447H176.311V25.756C175.772 26.5254 175.031 27.1584 174.079 27.6551C173.128 28.1552 172.04 28.4035 170.813 28.4035C169.431 28.4035 168.169 28.0538 167.029 27.3543C165.885 26.6548 164.986 25.6756 164.322 24.4165C163.661 23.1609 163.328 21.734 163.328 20.1427C163.328 18.5514 163.661 17.1385 164.322 15.9109L164.318 15.9074ZM175.632 17.3483C175.181 16.544 174.59 15.9284 173.862 15.5052C173.132 15.0821 172.345 14.8722 171.502 14.8722C170.659 14.8722 169.872 15.0786 169.141 15.4912C168.41 15.9039 167.823 16.509 167.371 17.3064C166.92 18.1038 166.696 19.0481 166.696 20.1427C166.696 21.2374 166.92 22.1957 167.371 23.0211C167.823 23.8464 168.417 24.476 169.155 24.9061C169.893 25.3363 170.676 25.5531 171.502 25.5531C172.327 25.5531 173.132 25.3433 173.862 24.9201C174.59 24.4969 175.181 23.8779 175.632 23.063C176.083 22.2481 176.307 21.2934 176.307 20.1987C176.307 19.104 176.08 18.1562 175.632 17.3483Z" fill="white"/>
<path d="M185.575 27.7252C184.585 27.274 183.805 26.6585 183.228 25.8821C182.651 25.1057 182.347 24.2383 182.309 23.2765H185.705C185.76 23.948 186.082 24.5111 186.67 24.9623C187.254 25.4134 187.988 25.6373 188.873 25.6373C189.758 25.6373 190.51 25.4589 191.017 25.1057C191.524 24.7524 191.779 24.2943 191.779 23.7382C191.779 23.1436 191.496 22.703 190.93 22.4127C190.363 22.1259 189.468 21.8077 188.237 21.4614C187.048 21.1362 186.079 20.8179 185.33 20.5101C184.582 20.2024 183.935 19.7337 183.386 19.1007C182.84 18.4677 182.564 17.6318 182.564 16.5966C182.564 15.7537 182.812 14.9808 183.312 14.2778C183.812 13.5784 184.526 13.0258 185.456 12.6236C186.387 12.2214 187.457 12.0186 188.667 12.0186C190.471 12.0186 191.923 12.4732 193.028 13.386C194.13 14.2988 194.721 15.5404 194.798 17.1142H191.517C191.461 16.4042 191.171 15.8377 190.653 15.4145C190.136 14.9913 189.433 14.7815 188.551 14.7815C187.67 14.7815 187.027 14.9458 186.565 15.2711C186.103 15.5964 185.872 16.03 185.872 16.5651C185.872 16.9883 186.026 17.3415 186.334 17.6318C186.642 17.9186 187.016 18.1459 187.457 18.3068C187.897 18.4712 188.551 18.6775 189.415 18.9258C190.566 19.2336 191.51 19.5449 192.252 19.8631C192.99 20.1814 193.63 20.6465 194.165 21.2586C194.703 21.8741 194.98 22.689 195.001 23.7067C195.001 24.609 194.752 25.4134 194.252 26.1234C193.752 26.8334 193.049 27.3894 192.136 27.7916C191.223 28.1938 190.153 28.3967 188.926 28.3967C187.698 28.3967 186.561 28.1693 185.572 27.7217L185.575 27.7252Z" fill="white"/>
<path d="M50.4888 30.1859C50.4888 30.1859 50.4794 30.1906 50.4748 30.1952C49.9944 30.4285 41.0721 34.5795 39.1411 22.5042C38.3996 17.8495 37.6347 13.6006 36.5153 10.0746C41.4032 9.22105 50.9505 8.84326 54.4019 17.6723C57.4335 25.4239 50.4888 30.1813 50.4888 30.1813V30.1859Z" fill="url(#paint0_radial_1_299)"/>
<path d="M44.5887 31.9955H7.97135C6.60478 31.9955 1.75418 32.1168 0.30366 27.2895C-1.14219 22.4622 2.82224 19.0994 6.96858 19.8037C9.85096 20.2887 14.2352 22.784 15.5318 23.5816C15.653 23.6608 15.779 23.7401 15.9049 23.8148C26.6275 30.3351 41.0208 31.7856 43.9684 31.9768C44.1783 31.9908 44.3835 32.0002 44.5887 32.0002V31.9955Z" fill="url(#paint1_linear_1_299)"/>
<path d="M50.4468 30.209C50.4468 30.209 50.4654 30.1997 50.4701 30.1997C50.3535 30.293 50.2183 30.3909 50.069 30.4889C50.0317 30.5122 49.9851 30.5448 49.9431 30.5681C49.8638 30.6194 49.7752 30.6661 49.6866 30.7221H49.6819C49.5933 30.7734 49.4953 30.8247 49.3974 30.876C48.8797 31.1372 48.2547 31.389 47.5504 31.5896C47.3125 31.6595 47.0607 31.7202 46.8042 31.7715C46.7715 31.7808 46.7435 31.7855 46.7156 31.7901C46.5337 31.8274 46.3424 31.8601 46.1512 31.8881C46.1092 31.8974 46.0673 31.9021 46.0206 31.9067C45.5635 31.9674 45.0878 32 44.5934 31.9953C44.3882 31.9953 44.1783 31.9907 43.9731 31.9767C43.9591 31.9767 43.9404 31.9767 43.9265 31.9767C40.8715 31.7715 26.5762 30.3023 15.9096 23.8193C15.7836 23.74 15.6624 23.6654 15.5411 23.5861C5.31284 16.8838 10.8677 0 22.9569 0C30.8625 0 34.4445 4.01108 36.506 10.0837C37.6673 13.4931 38.3483 17.5601 39.0432 21.9303C39.0432 21.9397 39.0432 21.949 39.0479 21.9583C39.0759 22.1402 39.1085 22.3268 39.1365 22.5087C39.2764 23.3902 39.4536 24.1831 39.6635 24.8967C39.6868 24.9853 39.7148 25.0739 39.7428 25.1625C39.8268 25.4237 39.9107 25.6756 39.9993 25.9134C40.4471 27.1121 40.9928 28.0496 41.5991 28.7725C41.6831 28.8704 41.7623 28.9637 41.8463 29.0523C41.9302 29.1409 42.0142 29.2296 42.0982 29.3088C44.5281 31.6689 47.6717 31.1511 49.3367 30.6288C49.4487 30.5961 49.5466 30.5588 49.6446 30.5262C49.6586 30.5262 49.6726 30.5168 49.6866 30.5122C49.7472 30.4935 49.8032 30.4749 49.8545 30.4515C49.8871 30.4422 49.9198 30.4282 49.9524 30.4142C49.9851 30.4049 50.013 30.3909 50.041 30.3816C50.0503 30.3816 50.0597 30.3769 50.0643 30.3722C50.1483 30.3396 50.2183 30.307 50.2742 30.2836C50.2929 30.2743 50.3115 30.265 50.3302 30.2603C50.3815 30.237 50.4188 30.2183 50.4468 30.2043V30.209Z" fill="url(#paint2_linear_1_299)"/>
<path style="mix-blend-mode:screen" d="M50.4888 30.1904C50.3722 30.2884 50.2276 30.3863 50.069 30.4889C50.0317 30.5122 49.9851 30.5449 49.9431 30.5682C49.8591 30.6195 49.7752 30.6708 49.6866 30.7221H49.6819C49.5933 30.7734 49.4953 30.8247 49.3974 30.876C48.8797 31.1372 48.2547 31.3891 47.5504 31.5896C47.3126 31.6596 47.0607 31.7202 46.8042 31.7715C46.7715 31.7808 46.7436 31.7855 46.7156 31.7902C46.5337 31.8275 46.3424 31.8601 46.1512 31.8881C46.1092 31.8974 46.0673 31.9021 46.0206 31.9068C45.8154 31.9348 45.6055 31.9534 45.3956 31.9674C45.3397 31.9674 45.2837 31.9721 45.2324 31.9767C45.0412 31.9861 44.8499 31.9954 44.6541 31.9954C44.6354 31.9954 44.6167 31.9954 44.5981 31.9954C44.5888 31.9954 44.5841 31.9954 44.5748 31.9954C44.3789 31.9954 44.1783 31.9907 43.9778 31.9767C43.9638 31.9767 43.9451 31.9767 43.9311 31.9767C43.9125 31.9767 43.8985 31.9767 43.8798 31.9767L43.9778 32.0047H7.97136C7.4863 32.0047 6.57215 32.0234 5.51807 31.8228C5.44345 31.8135 5.37349 31.7995 5.30353 31.7808C6.59547 31.4031 10.3827 29.8453 15.9002 23.8193C22.8077 16.2822 31.6134 10.9466 36.5013 10.0884C37.6627 13.4978 38.3436 17.5648 39.0386 21.935C39.0386 21.9444 39.0386 21.9537 39.0432 21.963C39.0665 22.1449 39.0992 22.3315 39.1272 22.5134C39.2671 23.3949 39.4443 24.1878 39.6542 24.9014C39.6775 24.99 39.7055 25.0786 39.7335 25.1672C39.8174 25.4284 39.9014 25.6803 39.99 25.9181C40.4378 27.1168 40.9835 28.0543 41.5898 28.7772C41.6737 28.8751 41.753 28.9684 41.837 29.057C41.9209 29.1457 42.0049 29.2343 42.0888 29.3136C44.5188 31.6736 47.6624 31.1559 49.3274 30.6335C49.4394 30.6008 49.5373 30.5635 49.6353 30.5309C49.6493 30.5309 49.6632 30.5216 49.6772 30.5169C49.7379 30.4982 49.7938 30.4796 49.8451 30.4563C49.8778 30.4469 49.9104 30.4329 49.9431 30.4189C49.9757 30.4096 50.0037 30.3956 50.0317 30.3863C50.041 30.3863 50.0504 30.3816 50.055 30.377C50.139 30.3443 50.2089 30.3163 50.2649 30.2884C50.2836 30.279 50.3022 30.2697 50.3209 30.265C50.3675 30.2417 50.4095 30.2277 50.4375 30.2091C50.4468 30.2091 50.4561 30.1997 50.4608 30.1997C50.4608 30.1997 50.4701 30.1951 50.4748 30.1904H50.4888Z" fill="url(#paint3_linear_1_299)"/>
<defs>
<radialGradient id="paint0_radial_1_299" cx="0" cy="0" r="1" gradientUnits="userSpaceOnUse" gradientTransform="translate(36.1375 10.8208) scale(23.5814 23.5814)">
<stop stop-color="white"/>
<stop offset="0.14" stop-color="#FEFAED"/>
<stop offset="0.41" stop-color="#FCF0BE"/>
<stop offset="0.79" stop-color="#F8DF74"/>
<stop offset="1" stop-color="#F7D548"/>
</radialGradient>
<linearGradient id="paint1_linear_1_299" x1="24.0203" y1="33.5953" x2="18.125" y2="18.9548" gradientUnits="userSpaceOnUse">
<stop stop-color="#E9A93D"/>
<stop offset="1" stop-color="#FAE04B"/>
</linearGradient>
<linearGradient id="paint2_linear_1_299" x1="37.6207" y1="5.1631" x2="26.1518" y2="28.9637" gradientUnits="userSpaceOnUse">
<stop stop-color="#E9A93D"/>
<stop offset="1" stop-color="#FAE04B"/>
</linearGradient>
<linearGradient id="paint3_linear_1_299" x1="11.586" y1="16.2263" x2="30.9464" y2="25.9928" gradientUnits="userSpaceOnUse">
<stop stop-color="white"/>
<stop offset="1" stop-color="#F7D548" stop-opacity="0"/>
</linearGradient>
</defs>
</svg>
